<?xml version="1.0" encoding="UTF-8"?>
<svg version="1.1" xmlns="http://www.w3.org/2000/svg" width="250" height="250">
<path d="M0 0 C1.00796631 0.50007568 2.01593262 1.00015137 3.05444336 1.51538086 C4.19042969 2.06645508 5.32641602 2.6175293 6.49682617 3.18530273 C7.09144653 3.47864502 7.68606689 3.7719873 8.29870605 4.07421875 C32.07238297 15.7448471 56.10152558 21.77009574 82.1706543 26.01831055 C86.97938722 26.81532472 86.97938722 26.81532472 88.08178711 27.91772461 C92.475181 84.44113674 80.56722353 144.71732727 43.51928711 188.79272461 C35.47077093 198.14048908 26.75483429 206.28185821 17.08178711 213.91772461 C16.31995117 214.54678711 15.55811523 215.17584961 14.77319336 215.82397461 C8.60549348 220.83729216 1.73364554 226.37606986 -6.34008789 227.31616211 C-10.50273669 226.85263572 -13.17819569 225.4355985 -16.54321289 223.10522461 C-17.44499268 222.50170166 -17.44499268 222.50170166 -18.36499023 221.88598633 C-24.95667263 217.3747983 -30.97077539 212.23437328 -36.91821289 206.91772461 C-37.44189453 206.45575684 -37.96557617 205.99378906 -38.50512695 205.51782227 C-75.28879853 173.02747706 -95.23342595 126.84016662 -98.4112854 78.16090393 C-98.60064815 74.97293918 -98.7675004 71.78424005 -98.92358398 68.59448242 C-99.04243561 66.18349226 -99.17298779 63.77334231 -99.30493164 61.36303711 C-99.88995816 50.20762577 -100.01695894 39.08700051 -99.91821289 27.91772461 C-95.34953456 26.54444047 -90.90195243 25.49151784 -86.18383789 24.72631836 C-61.70291315 20.5772176 -39.15861872 14.21063473 -16.95947266 2.7277832 C-15.99066162 2.2322998 -15.02185059 1.73681641 -14.02368164 1.22631836 C-13.1795874 0.7808667 -12.33549316 0.33541504 -11.46582031 -0.12353516 C-7.28102721 -1.69839692 -4.17636428 -1.54888504 0 0 Z " fill="#506FFB" transform="translate(130.918212890625,12.082275390625)"/>
<path d="M0 0 C1.4540625 0.0309375 1.4540625 0.0309375 2.9375 0.0625 C2.2775 0.7225 1.6175 1.3825 0.9375 2.0625 C-0.0525 2.0625 -1.0425 2.0625 -2.0625 2.0625 C-2.03220703 2.97725098 -2.00191406 3.89200195 -1.97070312 4.83447266 C-1.39182262 22.58161316 -0.88989368 40.30322741 -1.0625 58.0625 C-1.3925 58.0625 -1.7225 58.0625 -2.0625 58.0625 C-2.35421572 52.99898235 -2.63861602 47.93511817 -2.91699219 42.87084961 C-3.01211466 41.1575279 -3.10904396 39.44430529 -3.20800781 37.73120117 C-3.75301151 28.27427468 -4.15782399 18.83740435 -4.1875 9.36328125 C-4.19209229 8.54361374 -4.19668457 7.72394623 -4.20141602 6.87944031 C-4.18317041 0.08537082 -4.18317041 0.08537082 0 0 Z " fill="#1F2B61" transform="translate(35.0625,38.9375)"/>
</svg>
